<svg width="24" height="24" viewBox="0 0 24 24" xmlns="http://www.w3.org/2000/svg">
<path fill-rule="evenodd" clip-rule="evenodd" d="M15.9143 19.7732H16.1711C17.4489 19.7732 18.4885 20.8127 18.4886 22.0905V23.9999H5.52635V22.0905C5.52259 20.7017 6.73273 19.6591 8.09973 19.7731C8.53805 19.0554 9.59339 17.1417 9.87236 14.9529C6.69098 14.0265 4.35938 11.0849 4.35938 7.60856C4.77788 -2.53456 19.2353 -2.5378 19.6555 7.60851C19.6555 11.0851 17.3237 14.0269 14.142 14.9531C14.4201 17.1479 15.4753 19.0567 15.9143 19.7732ZM12.7559 15.2199C12.2647 15.2686 11.7501 15.2686 11.2589 15.2199C11.0057 17.0943 10.2749 18.7445 9.7247 19.7731H14.2902C13.7399 18.7445 13.0091 17.0943 12.7559 15.2199ZM6.93524 22.0905V22.591H17.0796V22.0905C17.0796 21.5896 16.672 21.1821 16.1711 21.1821H7.84368C7.34275 21.1821 6.93524 21.5896 6.93524 22.0905ZM12.7031 13.8385C13.8713 13.7123 14.943 13.2647 15.8282 12.5859C14.943 11.9071 13.8713 11.4595 12.7031 11.3333V13.8385ZM11.2969 8.29685V9.9246C9.75078 10.07 8.33826 10.6747 7.19719 11.6008C6.43862 10.6829 5.93691 9.54486 5.80211 8.29685H11.2969ZM11.2969 13.8333C10.147 13.7003 9.09207 13.2556 8.21879 12.586C9.09207 11.9162 10.147 11.4716 11.2969 11.3386V13.8333ZM16.8498 11.6007C15.6972 10.6653 14.2676 10.0578 12.7031 9.92032V8.29685H18.2448C18.11 9.54481 17.6083 10.6828 16.8498 11.6007ZM11.2969 3.89577V1.40108C10.1469 1.53404 9.09199 1.97872 8.21869 2.64845C9.09199 3.31816 10.147 3.76283 11.2969 3.89577ZM11.2969 5.30976C9.75075 5.16438 8.33821 4.5597 7.19711 3.63359C6.4481 4.54002 5.94952 5.66102 5.80735 6.8906H11.2969V5.30976ZM12.7031 6.8906H18.2395C18.0974 5.66098 17.5988 4.53995 16.8497 3.6335C15.6971 4.56898 14.2676 5.17651 12.7031 5.314V6.8906ZM12.7031 3.90099C13.8712 3.77481 14.943 3.32719 15.8281 2.64839C14.943 1.9696 13.8712 1.522 12.7031 1.39584V3.90099Z" fill="currentColor"/>
</svg>
