<svg width="206" height="64" viewBox="0 0 206 64" fill="none" xmlns="http://www.w3.org/2000/svg">
<path d="M82.9375 28.8025H88.8433C92.0319 28.8025 94.9508 27.5268 94.9508 24.0353C94.9508 22.6252 94.2771 20.9914 92.4358 20.4319V20.3871C93.6484 19.6933 94.2996 18.328 94.2996 16.9851C94.2996 14.2322 92.0543 12.7998 88.8433 12.7998H82.9375V28.8025ZM86.8672 18.9995V16.157H88.8208C89.876 16.157 90.303 16.7837 90.303 17.5223C90.303 18.2833 89.876 18.9995 88.8882 18.9995H86.8672ZM86.8672 25.4453V22.1329H89.2473C90.3923 22.1329 90.9317 22.8714 90.9317 23.7667C90.9317 24.6619 90.3699 25.4453 89.2248 25.4453H86.8672Z" fill="#2E363D"/>
<path d="M96.2891 25.5575C96.2891 27.5495 97.8381 29.0714 100.061 29.0714C101.386 29.0714 102.734 28.4671 103.497 27.3928H103.542C103.542 27.3928 103.497 27.7285 103.497 28.109V28.8028H107.045V21.7079C107.045 18.7759 105.069 17.0078 101.88 17.0078C99.994 17.0078 97.973 17.7464 96.9852 18.5073L98.332 21.2379C99.2529 20.6336 100.398 20.1412 101.521 20.1412C102.374 20.1412 103.16 20.4545 103.16 21.4169V21.6184H102.824C99.9715 21.6184 96.2891 22.4689 96.2891 25.5575ZM100.129 25.1994C100.129 24.1474 101.655 23.8341 102.845 23.8341H103.205V24.1474C103.205 25.0875 102.352 26.1842 101.229 26.1842C100.51 26.1842 100.129 25.7366 100.129 25.1994Z" fill="#2E363D"/>
<path d="M108.633 27.3704C109.913 28.5119 111.687 29.0714 113.349 29.0714C116.312 29.0714 118.109 27.4375 118.109 25.2889C118.109 21.5512 112.697 21.8422 112.697 20.6336C112.697 20.3202 112.945 20.0741 113.775 20.0741C114.763 20.0741 116.021 20.4769 116.694 21.0141L118.019 18.3283C116.852 17.3883 115.37 17.0078 113.887 17.0078C111.215 17.0078 109.082 18.2835 109.082 20.656C109.082 24.4384 114.494 24.1698 114.494 25.4008C114.494 25.7589 114.224 26.0051 113.438 26.0051C112.338 26.0051 111.148 25.5575 110.295 24.8413L108.633 27.3704Z" fill="#2E363D"/>
<path d="M120.078 28.8025H123.963V24.3263H125.175L127.623 28.8025H132.047L128.185 22.5581V22.5134L131.575 17.2761H127.354L125.063 21.0809H123.963V12.7998H120.078V28.8025Z" fill="#2E363D"/>
<path d="M132.25 23.0284C132.25 26.0946 134.473 29.0714 138.605 29.0714C140.379 29.0714 142.288 28.4671 143.545 27.3928L142.108 24.6846C141.165 25.3113 140.064 25.8485 138.919 25.8485C137.684 25.8485 136.517 25.1994 136.225 23.7894H143.523C143.568 23.3865 143.613 22.9837 143.613 22.5808C143.613 19.3802 141.681 17.0078 138.268 17.0078C134.541 17.0078 132.25 19.6488 132.25 23.0284ZM136.315 21.5736C136.517 20.656 137.056 19.8502 138.178 19.8502C139.167 19.8502 139.773 20.6336 139.773 21.5736H136.315Z" fill="#2E363D"/>
<path d="M146.318 24.55C146.318 28.422 149.888 28.9144 151.729 28.9144C152.179 28.9144 152.493 28.8696 152.785 28.8472V25.4901C152.538 25.5124 152.403 25.5124 152.268 25.5124C151.528 25.5124 150.203 25.3334 150.203 24.0352V20.499H152.628V17.4775H150.203V14.165H146.43V17.4775H144.836V20.499H146.318V24.55Z" fill="#2E363D"/>
<path d="M154.875 28.8025H158.445V28.3549C158.445 27.9968 158.423 27.7058 158.423 27.7058H158.468C159.254 28.6458 160.534 29.0711 161.701 29.0711C164.778 29.0711 167.09 26.6987 167.09 23.0505C167.09 19.4695 165.025 17.0075 161.881 17.0075C160.713 17.0075 159.433 17.4775 158.76 18.2385H158.715C158.715 18.2385 158.76 17.8356 158.76 17.2537V12.7998H154.875V28.8025ZM158.647 23.1176C158.647 21.1257 159.747 20.2752 160.916 20.2752C162.263 20.2752 163.183 21.3943 163.183 23.1176C163.183 24.8858 162.128 25.8706 160.916 25.8706C159.388 25.8706 158.647 24.5053 158.647 23.1176Z" fill="#2E363D"/>
<path d="M168.281 25.5575C168.281 27.5495 169.831 29.0714 172.054 29.0714C173.378 29.0714 174.726 28.4671 175.489 27.3928H175.534C175.534 27.3928 175.489 27.7285 175.489 28.109V28.8028H179.038V21.7079C179.038 18.7759 177.061 17.0078 173.873 17.0078C171.987 17.0078 169.966 17.7464 168.977 18.5073L170.325 21.2379C171.246 20.6336 172.391 20.1412 173.513 20.1412C174.367 20.1412 175.153 20.4545 175.153 21.4169V21.6184H174.816C171.964 21.6184 168.281 22.4689 168.281 25.5575ZM172.121 25.1994C172.121 24.1474 173.648 23.8341 174.838 23.8341H175.198V24.1474C175.198 25.0875 174.344 26.1842 173.222 26.1842C172.503 26.1842 172.121 25.7366 172.121 25.1994Z" fill="#2E363D"/>
<path d="M181.477 24.55C181.477 28.422 183.677 28.9144 185.743 28.9144C186.237 28.9144 186.641 28.8697 186.91 28.8473V25.4901C186.731 25.5124 186.551 25.5124 186.439 25.5124C185.563 25.5124 185.361 25.132 185.361 24.0353V12.7998H181.477V24.55Z" fill="#2E363D"/>
<path d="M188.734 24.55C188.734 28.422 190.935 28.9144 193.001 28.9144C193.495 28.9144 193.899 28.8697 194.168 28.8473V25.4901C193.988 25.5124 193.809 25.5124 193.697 25.5124C192.821 25.5124 192.619 25.132 192.619 24.0353V12.7998H188.734V24.55Z" fill="#2E363D"/>
<path d="M195.844 24.0579H202.895V20.7007H195.844V24.0579Z" fill="#2E363D"/>
<path d="M82.9375 51.1844H93.4242V47.8271H86.8672V35.1816H82.9375V51.1844Z" fill="#2E363D"/>
<path d="M94.1875 45.4098C94.1875 48.476 96.4108 51.4528 100.542 51.4528C102.317 51.4528 104.225 50.8485 105.483 49.7742L104.045 47.066C103.102 47.6927 102.002 48.2299 100.857 48.2299C99.6219 48.2299 98.4543 47.5808 98.1621 46.1708H105.46C105.505 45.7679 105.55 45.365 105.55 44.9622C105.55 41.7616 103.619 39.3892 100.206 39.3892C96.4782 39.3892 94.1875 42.0302 94.1875 45.4098ZM98.252 43.955C98.4543 43.0374 98.9931 42.2316 100.116 42.2316C101.104 42.2316 101.71 43.015 101.71 43.955H98.252Z" fill="#2E363D"/>
<path d="M106.773 47.9389C106.773 49.9308 108.323 51.4528 110.546 51.4528C111.871 51.4528 113.218 50.8485 113.982 49.7742H114.027C114.027 49.7742 113.982 50.1099 113.982 50.4904V51.1842H117.529V44.0893C117.529 41.1573 115.553 39.3892 112.365 39.3892C110.478 39.3892 108.457 40.1278 107.47 40.8887L108.817 43.6192C109.737 43.015 110.882 42.5226 112.006 42.5226C112.858 42.5226 113.645 42.8359 113.645 43.7983V43.9998H113.308C110.456 43.9998 106.773 44.8502 106.773 47.9389ZM110.613 47.5808C110.613 46.5288 112.14 46.2155 113.33 46.2155H113.689V46.5288C113.689 47.4689 112.836 48.5656 111.713 48.5656C110.995 48.5656 110.613 48.118 110.613 47.5808Z" fill="#2E363D"/>
<path d="M121.607 51.9228L120.506 54.855C121.63 55.4368 123.336 55.8843 124.886 55.8843C128.052 55.8843 131.42 54.3398 131.42 50.1323V39.6577H127.782V40.2397C127.782 40.374 127.804 40.5083 127.804 40.5083H127.737C126.929 39.7025 125.694 39.3892 124.593 39.3892C121.091 39.3892 119.406 42.1197 119.406 45.0517C119.406 48.006 121.135 50.8485 124.616 50.8485C125.963 50.8485 126.839 50.4456 127.513 49.6399H127.557C127.557 49.6399 127.535 49.9308 127.535 50.0651V50.4456C127.535 52.1466 126.255 52.6614 124.863 52.6614C123.695 52.6614 122.572 52.3928 121.607 51.9228ZM123.313 44.9174C123.313 43.5969 124.01 42.6121 125.379 42.6121C126.547 42.6121 127.625 43.0597 127.625 45.0965C127.625 47.1108 126.547 47.6255 125.537 47.6255C123.987 47.6255 123.313 46.3498 123.313 44.9174Z" fill="#2E363D"/>
<path d="M133.914 47.1331C133.914 50.3784 135.733 51.4528 138.023 51.4528C139.573 51.4528 141.01 50.6917 141.639 49.4608H141.684C141.684 49.4608 141.639 49.7965 141.639 50.177V51.1842H145.366V39.6577H141.481V44.7607C141.481 46.4841 140.695 47.9388 139.034 47.9388C138.225 47.9388 137.799 47.4912 137.799 46.4169V39.6577H133.914V47.1331Z" fill="#2E363D"/>
<path d="M147.32 45.4098C147.32 48.476 149.543 51.4528 153.675 51.4528C155.449 51.4528 157.357 50.8485 158.615 49.7742L157.178 47.066C156.235 47.6927 155.135 48.2299 153.989 48.2299C152.754 48.2299 151.587 47.5808 151.295 46.1708H158.592C158.637 45.7679 158.682 45.365 158.682 44.9622C158.682 41.7616 156.751 39.3892 153.338 39.3892C149.61 39.3892 147.32 42.0302 147.32 45.4098ZM151.384 43.955C151.587 43.0374 152.125 42.2316 153.249 42.2316C154.236 42.2316 154.843 43.015 154.843 43.955H151.384Z" fill="#2E363D"/>
<path fill-rule="evenodd" clip-rule="evenodd" d="M5.13289 4.92994C6.88789 3.87569 8.93021 4.55272 13.0149 5.90678C15.3644 6.68566 17.7256 7.5104 20.0943 8.38064C20.944 8.01456 21.8167 7.69328 22.709 7.41915C28.7698 5.55766 35.3083 6.00726 41.0553 8.68054C46.8022 11.3538 51.3475 16.0603 53.8089 21.886C54.1422 22.6714 54.4349 23.4716 54.6864 24.2834C55.0995 24.5153 55.511 24.748 55.9203 24.9813C61.1235 27.9456 63.7246 29.4277 63.7246 31.9998C63.7246 34.5719 61.1235 36.054 55.9203 39.0183C50.7086 41.9877 45.1903 44.8491 39.3996 47.5623C30.5852 51.6923 21.72 55.2067 13.0149 58.0926C8.93021 59.4467 6.88789 60.1241 5.13289 59.0697C3.37789 58.0153 3.03312 55.9507 2.34358 51.8211C1.28605 45.4879 0.704681 38.8466 0.664062 31.9998C0.704681 25.153 1.28605 18.5117 2.34358 12.1785C3.03312 8.04896 3.37789 5.98422 5.13289 4.92994Z" fill="#2E363D"/>
<path d="M31.1592 15.8279C30.3075 16.1418 29.4395 16.4098 28.5589 16.6307C26.8138 17.0784 25.04 17.4068 23.25 17.6134C24.2616 15.2526 25.5464 13.0176 27.0782 10.954C28.1537 10.7886 29.2403 10.7055 30.3286 10.7056C34.3178 10.6992 38.2268 11.8227 41.6001 13.9453C39.9217 13.8005 38.2313 13.8865 36.5765 14.2008C34.7139 14.5334 32.896 15.0794 31.1592 15.8279Z" fill="#FB4C18"/>
<path d="M22.0635 15.2879C21.659 16.1183 21.2846 16.9582 20.9403 17.8077C17.7947 17.9085 16.5812 16.8178 16.1406 16.1483C17.8994 14.5576 19.9153 13.2749 22.1032 12.3542C22.7571 12.0798 23.425 11.8395 24.104 11.6343C23.3545 12.8124 22.6732 14.0323 22.0635 15.2879Z" fill="#FB4C18"/>
<path d="M18.7004 25.5218C18.4837 26.7385 18.3284 27.9468 18.2345 29.1467C15.9375 29.2403 14.056 30.0718 12.633 31.5693C11.0728 33.2467 10.3216 35.5145 9.9894 37.5447C8.96359 33.924 8.92121 30.0966 9.8666 26.4541C10.1158 26.2706 10.8634 25.8782 12.8714 25.5182C14.8291 25.2178 16.8063 25.0614 18.787 25.0503L18.7004 25.5218Z" fill="#FB4C18"/>
<path d="M19.2455 23.0058C19.5128 21.9427 19.8246 20.8903 20.1809 19.8489C19.3749 19.8357 18.5734 19.7258 17.7937 19.5213C16.9073 19.2969 16.0803 18.8829 15.3704 18.3082C15.1182 18.0995 14.8883 17.8655 14.6842 17.6099C13.0765 19.3736 11.7808 21.3966 10.8524 23.5925C10.827 23.6579 10.8004 23.722 10.7739 23.7857C10.7552 23.8307 10.7367 23.8754 10.7188 23.9201C11.3135 23.7574 11.9162 23.6253 12.5245 23.5241C14.748 23.1778 16.9951 23.0045 19.2455 23.0058Z" fill="#FB4C18"/>
<path d="M38.4445 45.96C36.4013 44.3565 34.3492 42.2602 32.3626 40.2306L32.3267 40.1942C28.4162 36.1957 24.3904 32.0794 20.1772 31.3101C20.1339 33.7265 20.3542 36.1405 20.8345 38.5095C21.8069 43.0592 23.6152 47.3854 26.1634 51.2715C30.2528 49.6351 34.3536 47.8641 38.4445 45.96Z" fill="#FB4C18"/>
<path d="M41.5297 15.9861C43.0454 16.1171 44.5083 16.6044 45.7985 17.408H45.8057C49.4349 21.271 51.4632 26.3597 51.483 31.6519C50.1234 30.439 48.6135 29.4047 46.9903 28.5742C44.2846 27.1978 41.4346 26.1234 38.4924 25.3704C32.8907 23.9348 27.1419 23.1461 21.3594 23.0199C21.6664 21.8608 22.0275 20.77 22.3886 19.755C28.026 19.2384 31.6674 17.8244 31.9407 17.7183L31.9519 17.7139L31.9989 17.6923C33.602 17.0059 35.2792 16.5058 36.9972 16.2021C38.4906 15.9204 40.0161 15.8477 41.5297 15.9861Z" fill="#FB4C18"/>
<path d="M37.956 27.3431C32.3732 25.9135 26.6407 25.145 20.8772 25.0537L20.8453 25.2149C20.8019 25.436 20.7589 25.6588 20.7183 25.8817C20.516 27.0072 20.3703 28.1315 20.2812 29.2545C25.2397 30.0213 29.5916 34.4702 33.8098 38.7827L33.81 38.7829L33.8457 38.8193C35.9055 40.9225 37.8518 42.9097 39.816 44.4344C40.0622 44.6255 40.3032 44.8052 40.5394 44.9738C43.6578 43.4861 46.6942 41.9558 49.6431 40.3893C50.486 38.5124 51.0533 36.5096 51.3151 34.4417C48.8628 31.4719 44.2581 29.0278 37.956 27.3431Z" fill="#FB4C18"/>
<path d="M16.1008 31.6232C16.7528 31.3783 17.4384 31.2339 18.134 31.1948C18.079 33.785 18.3116 36.3733 18.8275 38.9125C19.8063 43.5499 21.6276 47.9698 24.2014 51.9542C23.4885 51.7409 22.788 51.4885 22.1031 51.1982C17.7472 49.3547 14.1327 46.1157 11.832 41.9939C11.7572 40.8937 11.7802 39.7891 11.9006 38.693C12.092 36.9579 12.6337 34.5533 14.1289 32.9623C14.6772 32.3743 15.3511 31.9166 16.1008 31.6232Z" fill="#FB4C18"/>
<path d="M26.1554 51.2756C30.2405 49.6411 34.337 47.8723 38.4238 45.9706C38.2986 45.8724 38.1735 45.7722 38.0483 45.6704C33.7734 47.8585 28.9004 48.6023 24.1641 47.7892C24.2712 47.996 24.3671 48.2057 24.455 48.4173C24.9787 49.3932 25.5459 50.347 26.1554 51.2756Z" fill="#DB2713"/>
<path d="M49.6645 40.3778C49.7234 40.2465 49.781 40.1145 49.8373 39.9819C50.5915 38.2082 51.0959 36.3391 51.336 34.4276C50.7262 33.6938 49.9839 32.9915 49.1161 32.3245L49.093 32.3218C47.6148 37.3496 44.3847 41.6862 39.9844 44.5516C40.1745 44.6975 40.3626 44.8367 40.5486 44.9694C43.6713 43.4795 46.7118 41.9468 49.6645 40.3778Z" fill="#DB2713"/>
<path d="M11.8326 42.0117C14.1333 46.1336 17.7478 49.3726 22.1037 51.2162V51.1981C22.7863 51.4881 23.4844 51.7405 24.1947 51.954C23.208 50.4223 22.3324 48.8265 21.573 47.1788C17.8305 46.0493 14.4565 43.9484 11.7969 41.0913C11.8012 41.3982 11.8131 41.7052 11.8326 42.0117Z" fill="#DB2713"/>
<path d="M49.8371 23.5923L49.8528 23.6099C50.9177 26.1346 51.4851 28.865 51.4955 31.6519C50.8965 31.1191 50.2697 30.6209 49.6172 30.1596C50.0176 27.9936 50.0918 25.7801 49.8371 23.5923Z" fill="#DB2713"/>
<path d="M20.2031 33.6874C20.2084 33.6918 20.2138 33.6961 20.2192 33.7003C20.2192 33.6179 20.2657 32.7511 20.4228 31.3802C20.3358 31.3614 20.2488 31.3441 20.1616 31.3281C20.1475 32.1153 20.1613 32.9022 20.2031 33.6874Z" fill="#FFA25F"/>
<path d="M20.7092 29.327C20.9078 28.0678 21.1858 26.6111 21.5755 25.0681L21.5746 25.0677C21.3473 25.062 21.1201 25.0573 20.8927 25.0537C20.8386 25.3273 20.7844 25.6045 20.7339 25.8816C20.534 27.0072 20.3883 28.1314 20.2969 29.2546C20.4348 29.2759 20.5722 29.3001 20.7092 29.327Z" fill="#FFA25F"/>
<path d="M30.3316 10.7056C34.3209 10.6992 38.2298 11.8227 41.6031 13.9453C40.896 13.8843 40.1868 13.8643 39.479 13.8851C39.3403 13.8232 39.1102 13.7299 38.9516 13.6655L38.9513 13.6654C38.9172 13.6516 38.8864 13.6391 38.8605 13.6285C36.2404 12.5348 33.4272 11.9742 30.5865 11.9799C29.8726 11.9785 29.159 12.0133 28.4485 12.0843C26.8522 13.5886 25.5136 15.4926 24.5136 17.4464C24.0908 17.5088 23.6669 17.5645 23.2422 17.6133C24.2538 15.2526 25.5385 13.0176 27.0704 10.954C28.1494 10.788 29.2397 10.705 30.3316 10.7056Z" fill="#FFA25F"/>
<path d="M22.1032 12.3615C22.7572 12.087 23.425 11.8468 24.104 11.6416C23.7449 12.2061 23.4014 12.7803 23.0739 13.3633C23.0716 13.3642 23.0694 13.365 23.0671 13.3659C22.7926 13.4666 22.5181 13.5746 22.2436 13.6898C20.3132 14.4948 18.5132 15.5805 16.9022 16.9115C16.9002 16.9132 16.8982 16.9148 16.8962 16.9163C16.5274 16.6578 16.2903 16.3859 16.1406 16.1627C17.8988 14.5695 19.9149 13.2844 22.1032 12.3615Z" fill="#FFA25F"/>
<path d="M10.853 23.5927C11.7832 21.4031 13.0788 19.3863 14.6848 17.6279C14.8889 17.8836 15.1188 18.1176 15.371 18.3263C16.0809 18.9011 16.9078 19.315 17.7943 19.5394C18.5739 19.7438 19.3755 19.8538 20.1815 19.867C20.1148 20.061 20.0498 20.2554 19.9863 20.45C19.9822 20.4613 19.9785 20.4721 19.9753 20.4826C16.8658 20.3206 15.4284 19.4135 14.8434 18.8807C13.4922 20.3293 12.3563 21.9634 11.4702 23.7331C11.4646 23.7344 11.4589 23.7359 11.4531 23.7376C11.2097 23.7935 10.9675 23.8543 10.7266 23.9202C10.7627 23.7942 10.8096 23.6862 10.853 23.5927Z" fill="#FFA25F"/>
<path d="M9.18752 31.785C9.18629 29.9925 9.41445 28.2072 9.86649 26.4722C9.96436 26.4001 10.139 26.2931 10.4366 26.1689L10.4368 26.1699C9.6599 28.383 9.26543 30.7114 9.27025 33.056V33.6785C9.21422 33.0496 9.18661 32.4178 9.18752 31.785Z" fill="#FFA25F"/>
<path d="M51.1027 27.7212C50.3519 23.8822 48.5318 20.3012 45.8136 17.408C44.5212 16.6033 43.0557 16.116 41.5375 15.9861C40.024 15.8477 38.4984 15.9204 37.0051 16.202C35.287 16.5058 33.6099 17.0058 32.0067 17.6923L31.9598 17.7139C31.9516 17.7169 31.9357 17.7228 31.9121 17.7317L31.9115 17.732C31.4334 17.9115 27.8583 19.2545 22.3965 19.755C22.0245 20.77 21.6742 21.8607 21.3672 23.0198C21.6364 23.0257 21.9056 23.033 22.1747 23.0418C22.4399 22.1692 22.744 21.2897 23.0906 20.4136C23.4099 20.3835 23.7408 20.3393 24.0848 20.2932C24.3983 20.2513 24.7227 20.2079 25.0589 20.1724C27.4435 19.9211 29.8063 19.2543 32.1303 18.5985C36.9301 17.244 41.5646 15.9362 45.8842 18.4303C48.5694 21.0979 49.9468 23.3531 51.1027 27.7212Z" fill="#FFA25F"/>
</svg>
