<svg width="211" height="72" viewBox="0 0 211 72" fill="none" xmlns="http://www.w3.org/2000/svg">
<g clip-path="url(#clip0_711_105157)">
<path fill-rule="evenodd" clip-rule="evenodd" d="M60.507 24.6372C57.7464 18.0811 52.6482 12.7847 46.2022 9.77626C39.7551 6.76782 32.4209 6.26185 25.6233 8.35676C24.9105 8.57628 24.2095 8.82273 23.5204 9.09508C21.3202 8.29262 19.1254 7.52792 16.9403 6.8012L16.7834 6.74878L16.7737 6.74549L16.7596 6.74082C14.7892 6.08584 13.074 5.51569 11.6236 5.27322C10.0258 5.00622 8.45301 5.07918 6.93966 5.99151C5.43714 6.89695 4.63558 8.22918 4.12608 9.75049C3.66333 11.1277 3.37132 12.8832 3.03836 14.8849L3.03786 14.8879L3.01082 15.0525C1.89663 21.7466 1.28546 28.7606 1.24219 35.9868V36.013C1.28546 43.2391 1.89663 50.2532 3.01082 56.9473L3.03786 57.1117V57.1143L3.03832 57.117C3.3713 59.1179 3.66331 60.8726 4.12608 62.2494C4.63558 63.7707 5.43714 65.1028 6.93966 66.0083C8.45301 66.9206 10.0269 66.9935 11.6236 66.7265C13.0791 66.4832 14.8027 65.9099 16.7804 65.2521L16.7823 65.2514L16.9403 65.1988C26.0344 62.1742 35.2907 58.4919 44.493 54.1658C50.5388 51.3239 56.3034 48.3253 61.751 45.2116L61.923 45.1129C64.4683 43.6583 66.622 42.4271 68.1137 41.2047C69.7158 39.8914 70.9446 38.2724 70.9446 35.9999C70.9446 33.7275 69.7158 32.1085 68.1137 30.7951C66.6226 29.5733 64.4699 28.3425 61.9269 26.8887L61.924 26.887L61.751 26.7881L61.2133 26.4818C60.9992 25.86 60.7644 25.2445 60.507 24.6372Z" fill="#F9F9F9"/>
<path fill-rule="evenodd" clip-rule="evenodd" d="M8.08644 7.88877C9.90295 6.79396 12.0169 7.49704 16.2447 8.9032C18.6766 9.71203 21.1206 10.5684 23.5723 11.4722C24.4519 11.0921 25.3551 10.7584 26.2787 10.4737C32.5519 8.54065 39.3196 9.00751 45.2682 11.7836C51.2165 14.5597 55.9211 19.4472 58.4688 25.497C58.8139 26.3126 59.1168 27.1435 59.3771 27.9865C59.8047 28.2274 60.2306 28.469 60.6546 28.7113C66.0396 31.7897 68.7322 33.3288 68.7322 35.9998C68.7322 38.6707 66.0396 40.2098 60.6546 43.2881C55.2598 46.3719 49.548 49.3433 43.5543 52.1607C34.4311 56.4497 25.255 60.0995 16.2447 63.0964C12.0169 64.5023 9.90295 65.2055 8.08644 64.1108C6.26991 63.0158 5.91304 60.8719 5.19933 56.5835C4.10473 50.0065 3.50298 43.1098 3.46094 35.9998C3.50298 28.8897 4.10473 21.9929 5.19933 15.416C5.91304 11.1277 6.26991 8.98356 8.08644 7.88877Z" fill="#1E222F"/>
<path d="M35.0225 19.2061C34.1408 19.532 33.2424 19.8103 32.3311 20.0397C30.5247 20.5047 28.6887 20.8457 26.8359 21.0602C27.883 18.6086 29.2128 16.2878 30.7983 14.1447C31.9116 13.9729 33.0361 13.8867 34.1627 13.8867C38.2919 13.8801 42.3377 15.0469 45.8294 17.2511C44.092 17.1007 42.3424 17.19 40.6296 17.5165C38.7017 17.8618 36.82 18.4288 35.0225 19.2061Z" fill="#FB4C18"/>
<path d="M25.6071 18.6458C25.1884 19.508 24.8009 20.3802 24.4445 21.2624C21.1886 21.3671 19.9326 20.2345 19.4766 19.5392C21.297 17.8874 23.3836 16.5552 25.6482 15.5992C26.325 15.3142 27.0163 15.0647 27.7191 14.8516C26.9433 16.075 26.2382 17.3418 25.6071 18.6458Z" fill="#FB4C18"/>
<path d="M22.1276 29.2729C21.9033 30.5364 21.7426 31.7912 21.6454 33.0373C19.268 33.1345 17.3204 33.998 15.8475 35.5529C14.2327 37.295 13.4551 39.65 13.1112 41.7582C12.0495 37.9981 12.0056 34.0237 12.9841 30.2411C13.2421 30.0504 14.0159 29.643 16.0943 29.2692C18.1206 28.9572 20.1671 28.7948 22.2173 28.7832L22.1276 29.2729Z" fill="#FB4C18"/>
<path d="M22.6851 26.6601C22.9617 25.5561 23.2844 24.4633 23.6533 23.3817C22.819 23.3681 21.9893 23.2539 21.1824 23.0416C20.2648 22.8085 19.4089 22.3787 18.6741 21.7818C18.4131 21.5651 18.1751 21.3221 17.9638 21.0566C16.2998 22.8882 14.9587 24.989 13.9977 27.2694C13.9714 27.3373 13.9438 27.4039 13.9165 27.47C13.8972 27.5167 13.878 27.5631 13.8594 27.6096C14.475 27.4407 15.0988 27.3034 15.7284 27.1984C18.0299 26.8388 20.3557 26.6588 22.6851 26.6601Z" fill="#FB4C18"/>
<path d="M42.5615 50.4965C40.4469 48.8314 38.3229 46.6545 36.2665 44.5468L36.2294 44.5092C32.1819 40.3567 28.0149 36.0821 23.654 35.2832C23.6091 37.7927 23.8372 40.2994 24.3343 42.7596C25.3407 47.4844 27.2124 51.977 29.85 56.0126C34.0827 54.3131 38.3274 52.474 42.5615 50.4965Z" fill="#FB4C18"/>
<path d="M45.7525 19.3696C47.3213 19.5056 48.8355 20.0117 50.1708 20.8461H50.1783C53.9347 24.8577 56.0341 30.1421 56.0546 35.6379C54.6475 34.3782 53.0846 33.3043 51.4045 32.4417C48.604 31.0125 45.6542 29.8968 42.6086 29.1149C36.8106 27.624 30.8604 26.805 24.875 26.6739C25.1927 25.4702 25.5666 24.3375 25.9404 23.2834C31.7753 22.7469 35.5443 21.2786 35.8273 21.1684L35.8389 21.1639L35.8876 21.1414C37.547 20.4286 39.2827 19.9093 41.0611 19.5939C42.6069 19.3013 44.1859 19.2259 45.7525 19.3696Z" fill="#FB4C18"/>
<path d="M42.0523 31.1645C36.2737 29.6799 30.3401 28.8818 24.3746 28.7871L24.3417 28.9545C24.2967 29.184 24.2522 29.4155 24.2102 29.6469C24.0008 30.8158 23.85 31.9833 23.7578 33.1495C28.8901 33.9456 33.3946 38.5658 37.7605 43.0442L37.7608 43.0445L37.7976 43.0821C39.9297 45.2662 41.9443 47.3299 43.9775 48.9133C44.2322 49.1116 44.4817 49.2982 44.7263 49.4732C47.9538 47.9283 51.0966 46.3393 54.1491 44.7124C55.0214 42.7634 55.6085 40.6837 55.8796 38.5362C53.3413 35.4521 48.5752 32.9141 42.0523 31.1645Z" fill="#FB4C18"/>
<path d="M19.4316 35.6088C20.1064 35.3546 20.8161 35.2045 21.5361 35.1641C21.4792 37.8538 21.7199 40.5416 22.2539 43.1785C23.2671 47.9942 25.1522 52.5842 27.8162 56.7217C27.0784 56.5002 26.3533 56.2382 25.6444 55.9369C21.1358 54.0223 17.3946 50.6587 15.0131 46.3783C14.9358 45.236 14.9596 44.0887 15.0842 42.9506C15.2823 41.1486 15.843 38.6516 17.3906 36.9995C17.9581 36.3889 18.6556 35.9137 19.4316 35.6088Z" fill="#FB4C18"/>
<path d="M29.8424 56.0172C34.0706 54.32 38.3109 52.4831 42.5409 50.5081C42.4113 50.4062 42.2819 50.3021 42.1523 50.1963C37.7274 52.4687 32.6838 53.2411 27.7812 52.3967C27.8922 52.6113 27.9915 52.8293 28.0823 53.0489C28.6244 54.0624 29.2116 55.053 29.8424 56.0172Z" fill="#DB2713"/>
<path d="M54.1756 44.6998C54.2368 44.5636 54.2963 44.4265 54.3545 44.2886C55.1351 42.4468 55.6571 40.5058 55.9058 38.5208C55.2747 37.7588 54.5062 37.0293 53.6082 36.3368L53.5841 36.334C52.0541 41.5551 48.7108 46.0587 44.1562 49.0342C44.3531 49.1857 44.5475 49.3303 44.7403 49.4679C47.9723 47.9207 51.1195 46.3292 54.1756 44.6998Z" fill="#DB2713"/>
<path d="M15.0135 46.3973C17.3949 50.6775 21.1361 54.0413 25.6447 55.9556V55.9368C26.3512 56.2381 27.0738 56.5003 27.8091 56.7219C26.7878 55.1312 25.8815 53.4741 25.0954 51.763C21.2217 50.5902 17.7295 48.4084 14.9766 45.4414C14.981 45.7601 14.9933 46.0789 15.0135 46.3973Z" fill="#DB2713"/>
<path d="M54.3526 27.2695L54.369 27.2878C55.4711 29.9097 56.0585 32.7449 56.0693 35.6391C55.4492 35.0858 54.8004 34.5685 54.125 34.0894C54.5396 31.84 54.6163 29.5415 54.3526 27.2695Z" fill="#DB2713"/>
<path d="M23.6813 37.753C23.6867 37.7574 23.6923 37.7618 23.698 37.7662C23.698 37.6807 23.7461 36.7807 23.9087 35.357C23.8186 35.3373 23.7285 35.3193 23.6383 35.3027C23.6237 36.1202 23.6381 36.9374 23.6813 37.753Z" fill="#FFA25F"/>
<path d="M24.2081 33.2249C24.4137 31.9172 24.7014 30.4044 25.1048 28.8021L25.1037 28.8016C24.8686 28.7957 24.6333 28.7908 24.398 28.7871C24.342 29.0712 24.2859 29.359 24.2336 29.6469C24.0267 30.8156 23.876 31.9831 23.7812 33.1495C23.924 33.1717 24.0663 33.1969 24.2081 33.2249Z" fill="#FFA25F"/>
<path d="M34.166 13.8867C38.2952 13.8801 42.3413 15.0468 45.8328 17.2511C45.1009 17.1878 44.3667 17.1669 43.6343 17.1885C43.4906 17.1243 43.2524 17.0273 43.0882 16.9605L43.0879 16.9604C43.0527 16.946 43.0209 16.9331 42.994 16.9221C40.2821 15.7863 37.3703 15.2042 34.4299 15.2101C33.6911 15.2086 32.9523 15.2448 32.217 15.3185C30.5646 16.8806 29.1792 18.8579 28.1441 20.8868C27.7065 20.9517 27.2678 21.0095 26.8281 21.0602C27.8752 18.6086 29.205 16.2877 30.7906 14.1447C31.9074 13.9724 33.0359 13.8861 34.166 13.8867Z" fill="#FFA25F"/>
<path d="M25.6482 15.606C26.3251 15.321 27.0163 15.0715 27.7191 14.8584C27.3474 15.4446 26.9919 16.0409 26.6529 16.6463C26.6506 16.6472 26.6482 16.6481 26.6458 16.649C26.3617 16.7536 26.0776 16.8658 25.7935 16.9854C23.7954 17.8213 21.9323 18.9487 20.2648 20.331C20.2628 20.3327 20.2607 20.3344 20.2586 20.336C19.8769 20.0675 19.6315 19.7852 19.4766 19.5534C21.2964 17.8989 23.3831 16.5643 25.6482 15.606Z" fill="#FFA25F"/>
<path d="M13.998 27.2684C14.9609 24.9945 16.3019 22.9002 17.9642 21.0742C18.1754 21.3397 18.4134 21.5828 18.6744 21.7995C19.4093 22.3964 20.2651 22.8261 21.1827 23.0592C21.9896 23.2715 22.8193 23.3857 23.6536 23.3994C23.5846 23.6009 23.5172 23.8027 23.4516 24.0048C23.4473 24.0166 23.4435 24.0279 23.4402 24.0387C20.2217 23.8705 18.7339 22.9285 18.1283 22.3752C16.7298 23.8795 15.554 25.5764 14.6369 27.4142C14.6311 27.4156 14.6252 27.4171 14.6191 27.4189C14.3673 27.4769 14.1165 27.5401 13.8672 27.6085C13.9046 27.4777 13.9532 27.3655 13.998 27.2684Z" fill="#FFA25F"/>
<path d="M12.2813 35.7772C12.28 33.9158 12.5162 32.062 12.9841 30.2602C13.0853 30.1854 13.2661 30.0742 13.5741 29.9453L13.5743 29.9462C12.7702 32.2445 12.3619 34.6623 12.3669 37.0973V37.7437C12.3089 37.0907 12.2803 36.4344 12.2813 35.7772Z" fill="#FFA25F"/>
<path d="M55.6686 31.5569C54.8913 27.5703 53.0074 23.8517 50.1941 20.8471C48.8563 20.0115 47.3393 19.5054 45.7681 19.3706C44.2015 19.2268 42.6225 19.3023 41.0767 19.5948C39.2983 19.9103 37.5626 20.4295 35.9032 21.1424L35.8545 21.1648C35.8462 21.1679 35.8296 21.1741 35.8052 21.1833L35.8047 21.1835C35.3098 21.37 31.6093 22.7646 25.956 23.2844C25.571 24.3385 25.2084 25.4711 24.8906 26.6748C25.1693 26.6809 25.4479 26.6885 25.7264 26.6976C26.0009 25.7914 26.3158 24.8781 26.6745 23.9684C27.0049 23.9371 27.3475 23.8911 27.7035 23.8433C28.028 23.7998 28.3637 23.7547 28.7117 23.7179C31.18 23.4569 33.6256 22.7645 36.0312 22.0834C40.9992 20.6768 45.7961 19.3187 50.2673 21.9088C53.0465 24.679 54.4721 27.0209 55.6686 31.5569Z" fill="#FFA25F"/>
<path d="M87.7891 32.3672H93.8351C97.0994 32.3672 100.088 31.0611 100.088 27.4867C100.088 26.0432 99.3979 24.3706 97.513 23.7977V23.7519C98.7543 23.0416 99.4209 21.6439 99.4209 20.2691C99.4209 17.4508 97.1224 15.9844 93.8351 15.9844H87.7891V32.3672ZM91.8121 22.3313V19.4213H93.8121C94.8923 19.4213 95.3295 20.0629 95.3295 20.819C95.3295 21.5981 94.8923 22.3313 93.8811 22.3313H91.8121ZM91.8121 28.9302V25.5391H94.2487C95.4209 25.5391 95.9731 26.2952 95.9731 27.2117C95.9731 28.1282 95.3979 28.9302 94.2256 28.9302H91.8121Z" fill="#F9F9F9"/>
<path d="M101.453 29.0448C101.453 31.084 103.039 32.6421 105.315 32.6421C106.671 32.6421 108.051 32.0234 108.832 30.9236H108.878C108.878 30.9236 108.832 31.2673 108.832 31.6568V32.3671H112.464V25.1037C112.464 22.1021 110.441 20.292 107.177 20.292C105.246 20.292 103.177 21.0481 102.166 21.8271L103.545 24.6225C104.487 24.0039 105.66 23.4998 106.809 23.4998C107.683 23.4998 108.487 23.8206 108.487 24.8058V25.0121H108.143C105.223 25.0121 101.453 25.8828 101.453 29.0448ZM105.384 28.6781C105.384 27.6012 106.947 27.2804 108.165 27.2804H108.533V27.6012C108.533 28.5636 107.66 29.6863 106.51 29.6863C105.775 29.6863 105.384 29.228 105.384 28.6781Z" fill="#F9F9F9"/>
<path d="M114.094 30.9007C115.404 32.0693 117.221 32.6421 118.921 32.6421C121.956 32.6421 123.795 30.9694 123.795 28.7698C123.795 24.9433 118.255 25.2412 118.255 24.0039C118.255 23.6831 118.508 23.4311 119.358 23.4311C120.37 23.4311 121.657 23.8435 122.347 24.3934L123.703 21.6438C122.508 20.6815 120.991 20.292 119.473 20.292C116.737 20.292 114.554 21.598 114.554 24.0268C114.554 27.8991 120.094 27.6241 120.094 28.8843C120.094 29.2509 119.818 29.503 119.014 29.503C117.887 29.503 116.668 29.0448 115.795 28.3115L114.094 30.9007Z" fill="#F9F9F9"/>
<path d="M125.812 32.3672H129.789V27.7846H131.031L133.536 32.3672H138.066L134.112 25.9744V25.9286L137.582 20.567H133.261L130.916 24.4622H129.789V15.9844H125.812V32.3672Z" fill="#F9F9F9"/>
<path d="M138.273 26.4556C138.273 29.5946 140.55 32.6421 144.78 32.6421C146.596 32.6421 148.55 32.0234 149.837 30.9236L148.365 28.1511C147.4 28.7927 146.273 29.3426 145.101 29.3426C143.837 29.3426 142.642 28.6781 142.342 27.2346H149.814C149.86 26.8222 149.906 26.4098 149.906 25.9973C149.906 22.7208 147.929 20.292 144.435 20.292C140.619 20.292 138.273 22.9957 138.273 26.4556ZM142.435 24.9662C142.642 24.0268 143.193 23.2019 144.342 23.2019C145.354 23.2019 145.975 24.0039 145.975 24.9662H142.435Z" fill="#F9F9F9"/>
<path d="M152.681 28.0134C152.681 31.9774 156.336 32.4815 158.221 32.4815C158.681 32.4815 159.003 32.4357 159.302 32.4127V28.9758C159.049 28.9987 158.911 28.9987 158.773 28.9987C158.015 28.9987 156.658 28.8154 156.658 27.4864V23.8662H159.141V20.7729H156.658V17.3818H152.796V20.7729H151.164V23.8662H152.681V28.0134Z" fill="#F9F9F9"/>
<path d="M161.438 32.3672H165.092V31.9089C165.092 31.5423 165.069 31.2444 165.069 31.2444H165.115C165.92 32.2067 167.23 32.6421 168.426 32.6421C171.576 32.6421 173.943 30.2134 173.943 26.4786C173.943 22.8124 171.828 20.292 168.61 20.292C167.414 20.292 166.104 20.7732 165.414 21.5522H165.368C165.368 21.5522 165.414 21.1398 165.414 20.5441V15.9844H161.438V32.3672ZM165.299 26.5472C165.299 24.508 166.426 23.6373 167.622 23.6373C169.001 23.6373 169.943 24.783 169.943 26.5472C169.943 28.3574 168.863 29.3656 167.622 29.3656C166.058 29.3656 165.299 27.9679 165.299 26.5472Z" fill="#F9F9F9"/>
<path d="M175.156 29.0448C175.156 31.084 176.743 32.6421 179.018 32.6421C180.375 32.6421 181.754 32.0234 182.536 30.9236H182.582C182.582 30.9236 182.536 31.2673 182.536 31.6568V32.3671H186.168V25.1037C186.168 22.1021 184.145 20.292 180.881 20.292C178.95 20.292 176.881 21.0481 175.869 21.8271L177.248 24.6225C178.191 24.0039 179.363 23.4998 180.513 23.4998C181.386 23.4998 182.191 23.8206 182.191 24.8058V25.0121H181.846C178.927 25.0121 175.156 25.8828 175.156 29.0448ZM179.087 28.6781C179.087 27.6012 180.651 27.2804 181.869 27.2804H182.237V27.6012C182.237 28.5636 181.363 29.6863 180.214 29.6863C179.478 29.6863 179.087 29.228 179.087 28.6781Z" fill="#F9F9F9"/>
<path d="M188.664 28.0137C188.664 31.9776 190.917 32.4817 193.032 32.4817C193.537 32.4817 193.951 32.4359 194.227 32.413V28.9761C194.043 28.9989 193.859 28.9989 193.744 28.9989C192.848 28.9989 192.641 28.6094 192.641 27.4867V15.9844H188.664V28.0137Z" fill="#F9F9F9"/>
<path d="M196.102 28.0137C196.102 31.9776 198.354 32.4817 200.469 32.4817C200.975 32.4817 201.389 32.4359 201.664 32.413V28.9761C201.48 28.9989 201.297 28.9989 201.182 28.9989C200.285 28.9989 200.079 28.6094 200.079 27.4867V15.9844H196.102V28.0137Z" fill="#F9F9F9"/>
<path d="M203.375 27.5092H210.593V24.0723H203.375V27.5092Z" fill="#F9F9F9"/>
<path d="M87.7891 55.2793H98.5247V51.8423H91.8121V38.8965H87.7891V55.2793Z" fill="#F9F9F9"/>
<path d="M99.3047 49.3687C99.3047 52.5078 101.581 55.5552 105.81 55.5552C107.627 55.5552 109.581 54.9365 110.868 53.8367L109.397 51.0643C108.431 51.7058 107.305 52.2557 106.132 52.2557C104.868 52.2557 103.673 51.5913 103.374 50.1477H110.845C110.891 49.7353 110.937 49.3228 110.937 48.9104C110.937 45.6338 108.96 43.2051 105.466 43.2051C101.65 43.2051 99.3047 45.9088 99.3047 49.3687ZM103.466 47.8793C103.673 46.9399 104.224 46.115 105.374 46.115C106.386 46.115 107.006 46.917 107.006 47.8793H103.466Z" fill="#F9F9F9"/>
<path d="M112.188 51.9578C112.188 53.9971 113.773 55.5552 116.049 55.5552C117.406 55.5552 118.785 54.9365 119.567 53.8367H119.613C119.613 53.8367 119.567 54.1804 119.567 54.57V55.2802H123.199V48.0168C123.199 45.0152 121.176 43.2051 117.911 43.2051C115.98 43.2051 113.911 43.9612 112.9 44.7403L114.28 47.5356C115.222 46.917 116.394 46.4129 117.544 46.4129C118.417 46.4129 119.222 46.7337 119.222 47.719V47.9252H118.877C115.957 47.9252 112.188 48.7958 112.188 51.9578ZM116.118 51.5913C116.118 50.5143 117.682 50.1935 118.9 50.1935H119.268V50.5143C119.268 51.4767 118.394 52.5994 117.245 52.5994C116.509 52.5994 116.118 52.1412 116.118 51.5913Z" fill="#F9F9F9"/>
<path d="M127.378 56.0364L126.251 59.0382C127.401 59.6339 129.148 60.092 130.734 60.092C133.976 60.092 137.424 58.5108 137.424 54.2033V43.48H133.7V44.0758C133.7 44.2133 133.723 44.3508 133.723 44.3508H133.654C132.826 43.5259 131.562 43.2051 130.435 43.2051C126.849 43.2051 125.125 46.0005 125.125 49.0021C125.125 52.0266 126.895 54.9365 130.458 54.9365C131.838 54.9365 132.734 54.5241 133.424 53.6993H133.47C133.47 53.6993 133.447 53.9971 133.447 54.1346V54.5241C133.447 56.2655 132.137 56.7925 130.711 56.7925C129.516 56.7925 128.366 56.5175 127.378 56.0364ZM129.125 48.8646C129.125 47.5127 129.838 46.5046 131.24 46.5046C132.435 46.5046 133.539 46.9628 133.539 49.0479C133.539 51.1101 132.435 51.6371 131.401 51.6371C129.815 51.6371 129.125 50.331 129.125 48.8646Z" fill="#F9F9F9"/>
<path d="M139.977 51.1324C139.977 54.4548 141.839 55.5547 144.183 55.5547C145.77 55.5547 147.241 54.7756 147.885 53.5154H147.931C147.931 53.5154 147.885 53.8591 147.885 54.2486V55.2797H151.701V43.4795H147.724V48.7037C147.724 50.468 146.919 51.9573 145.218 51.9573C144.39 51.9573 143.954 51.499 143.954 50.3992V43.4795H139.977V51.1324Z" fill="#F9F9F9"/>
<path d="M153.703 49.3687C153.703 52.5078 155.979 55.5552 160.209 55.5552C162.025 55.5552 163.979 54.9365 165.266 53.8367L163.795 51.0643C162.829 51.7058 161.703 52.2557 160.53 52.2557C159.266 52.2557 158.071 51.5913 157.772 50.1477H165.243C165.289 49.7353 165.335 49.3228 165.335 48.9104C165.335 45.6338 163.358 43.2051 159.864 43.2051C156.048 43.2051 153.703 45.9088 153.703 49.3687ZM157.864 47.8793C158.071 46.9399 158.622 46.115 159.772 46.115C160.783 46.115 161.404 46.917 161.404 47.8793H157.864Z" fill="#F9F9F9"/>
</g>
<defs>
<clipPath id="clip0_711_105157">
<rect width="210.593" height="72" fill="white"/>
</clipPath>
</defs>
</svg>
