<svg width="0" height="0" class="hidden">
  <symbol xmlns="http://www.w3.org/2000/svg" viewBox="0 0 24 24" id="ic_account">
    <path d="M16 16.5C16 15.9477 15.5523 15.5 15 15.5C14.4477 15.5 14 15.9477 14 16.5H16ZM14 8.0625C14 8.61478 14.4477 9.0625 15 9.0625C15.5523 9.0625 16 8.61478 16 8.0625H14ZM20 13C20.5523 13 21 12.5523 21 12C21 11.4477 20.5523 11 20 11V13ZM9 12L8.29289 11.2929C8.10536 11.4804 8 11.7348 8 12C8 12.2652 8.10536 12.5196 8.29289 12.7071L9 12ZM10.7929 15.2071C11.1834 15.5976 11.8166 15.5976 12.2071 15.2071C12.5976 14.8166 12.5976 14.1834 12.2071 13.7929L10.7929 15.2071ZM12.2071 10.2071C12.5976 9.81658 12.5976 9.18342 12.2071 8.79289C11.8166 8.40237 11.1834 8.40237 10.7929 8.79289L12.2071 10.2071ZM6 4H13V2H6V4ZM13 20H6V22H13V20ZM5 19V5H3V19H5ZM14 16.5V19H16V16.5H14ZM20 11L9 11V13L20 13V11ZM8.29289 12.7071L10.7929 15.2071L12.2071 13.7929L9.70711 11.2929L8.29289 12.7071ZM9.70711 12.7071L12.2071 10.2071L10.7929 8.79289L8.29289 11.2929L9.70711 12.7071ZM6 20C5.44772 20 5 19.5523 5 19H3C3 20.6569 4.34315 22 6 22V20ZM13 22C14.6569 22 16 20.6569 16 19H14C14 19.5523 13.5523 20 13 20V22ZM13 4C13.5523 4 14 4.44772 14 5H16C16 3.34315 14.6569 2 13 2V4ZM6 2C4.34315 2 3 3.34315 3 5H5C5 4.44772 5.44772 4 6 4V2ZM14 5V8.0625H16V5H14Z" fill="currentColor"></path>
  </symbol>
  <symbol xmlns="http://www.w3.org/2000/svg" viewBox="0 0 24 24" id="ic_award">
    <path fill-rule="evenodd" clip-rule="evenodd" d="M15.9143 19.7732H16.1711C17.4489 19.7732 18.4885 20.8127 18.4886 22.0905V23.9999H5.52635V22.0905C5.52259 20.7017 6.73273 19.6591 8.09973 19.7731C8.53805 19.0554 9.59339 17.1417 9.87236 14.9529C6.69098 14.0265 4.35938 11.0849 4.35938 7.60856C4.77788 -2.53456 19.2353 -2.5378 19.6555 7.60851C19.6555 11.0851 17.3237 14.0269 14.142 14.9531C14.4201 17.1479 15.4753 19.0567 15.9143 19.7732ZM12.7559 15.2199C12.2647 15.2686 11.7501 15.2686 11.2589 15.2199C11.0057 17.0943 10.2749 18.7445 9.7247 19.7731H14.2902C13.7399 18.7445 13.0091 17.0943 12.7559 15.2199ZM6.93524 22.0905V22.591H17.0796V22.0905C17.0796 21.5896 16.672 21.1821 16.1711 21.1821H7.84368C7.34275 21.1821 6.93524 21.5896 6.93524 22.0905ZM12.7031 13.8385C13.8713 13.7123 14.943 13.2647 15.8282 12.5859C14.943 11.9071 13.8713 11.4595 12.7031 11.3333V13.8385ZM11.2969 8.29685V9.9246C9.75078 10.07 8.33826 10.6747 7.19719 11.6008C6.43862 10.6829 5.93691 9.54486 5.80211 8.29685H11.2969ZM11.2969 13.8333C10.147 13.7003 9.09207 13.2556 8.21879 12.586C9.09207 11.9162 10.147 11.4716 11.2969 11.3386V13.8333ZM16.8498 11.6007C15.6972 10.6653 14.2676 10.0578 12.7031 9.92032V8.29685H18.2448C18.11 9.54481 17.6083 10.6828 16.8498 11.6007ZM11.2969 3.89577V1.40108C10.1469 1.53404 9.09199 1.97872 8.21869 2.64845C9.09199 3.31816 10.147 3.76283 11.2969 3.89577ZM11.2969 5.30976C9.75075 5.16438 8.33821 4.5597 7.19711 3.63359C6.4481 4.54002 5.94952 5.66102 5.80735 6.8906H11.2969V5.30976ZM12.7031 6.8906H18.2395C18.0974 5.66098 17.5988 4.53995 16.8497 3.6335C15.6971 4.56898 14.2676 5.17651 12.7031 5.314V6.8906ZM12.7031 3.90099C13.8712 3.77481 14.943 3.32719 15.8281 2.64839C14.943 1.9696 13.8712 1.522 12.7031 1.39584V3.90099Z" fill="currentColor"></path>
  </symbol>
  <symbol xmlns="http://www.w3.org/2000/svg" viewBox="0 0 16 16" id="ic_ball">
    <path d="M8 14C11.3137 14 14 11.3137 14 8C14 4.68629 11.3137 2 8 2C4.68629 2 2 4.68629 2 8C2 11.3137 4.68629 14 8 14Z" stroke="currentColor" stroke-linecap="round" stroke-linejoin="round" fill="none"></path>
    <path d="M8 2V14" stroke="currentColor" stroke-linecap="round" stroke-linejoin="round" fill="none"></path>
    <path d="M3 11C3.61061 10.6866 4.11532 10.246 4.46558 9.72062C4.81584 9.19523 4.99988 8.6027 5 8C4.99988 7.3973 4.81584 6.80477 4.46558 6.27938C4.11532 5.75398 3.61061 5.3134 3 5" stroke="currentColor" stroke-linecap="round" stroke-linejoin="round" fill="none"></path>
    <path d="M13 5C12.3893 5.31352 11.8845 5.75415 11.5342 6.27954C11.184 6.80492 11 7.3974 11 8C11 8.6026 11.184 9.19508 11.5342 9.72046C11.8845 10.2458 12.3893 10.6865 13 11" stroke="currentColor" stroke-linecap="round" stroke-linejoin="round" fill="none"></path>
  </symbol>
  <symbol xmlns="http://www.w3.org/2000/svg" viewBox="0 0 9 7" id="ic_check">
    <path d="M1 4L3 6L8 1" stroke="currentColor" stroke-width="2" stroke-linecap="round" stroke-linejoin="round" fill="none"></path>
  </symbol>
  <symbol xmlns="http://www.w3.org/2000/svg" viewBox="0 0 16 16" id="ic_date">
    <path d="M13.3327 6.66667V5.33333C13.3327 4.22876 12.4372 3.33333 11.3327 3.33333H4.66602C3.56145 3.33333 2.66602 4.22876 2.66602 5.33333V6.66667M13.3327 6.66667V12C13.3327 13.1046 12.4373 14 11.3327 14H4.66602C3.56145 14 2.66602 13.1046 2.66602 12V6.66667M13.3327 6.66667H2.66602M5.33268 2V4.66667M10.666 2V4.66667" stroke="currentColor" stroke-linecap="round" fill="none"></path>
  </symbol>
  <symbol xmlns="http://www.w3.org/2000/svg" viewBox="0 0 24 24" id="ic_email">
    <path d="M4 7.00005L10.2 11.65C11.2667 12.45 12.7333 12.45 13.8 11.65L20 7" stroke="currentColor" stroke-width="2" stroke-linecap="round" stroke-linejoin="round" fill="none"></path>
    <rect x="3" y="5" width="18" height="14" rx="2" stroke="currentColor" stroke-width="2" stroke-linecap="round" fill="none"></rect>
  </symbol>
  <symbol xmlns="http://www.w3.org/2000/svg" viewBox="0 0 16 16" id="ic_gender">
    <circle cx="7.5" cy="7.5" r="3.5" stroke="currentColor" stroke-linecap="round" stroke-linejoin="round" fill="none"></circle>
    <path d="M7.5 15V11" stroke="currentColor" stroke-linecap="round" stroke-linejoin="round" fill="none"></path>
    <path d="M5.75 13.5L9.25 13.5" stroke="currentColor" stroke-linecap="round" stroke-linejoin="round" fill="none"></path>
    <path d="M10 4.99982L13.4979 1.49984M13.4979 1.49984H10.7677M13.4979 1.49984V4.23" stroke="currentColor" stroke-linecap="round" stroke-linejoin="round" fill="none"></path>
  </symbol>
  <symbol xmlns="http://www.w3.org/2000/svg" viewBox="0 0 24 24" id="ic_instagram">
    <rect x="3" y="3" width="18" height="18" rx="3" stroke="currentColor" stroke-width="2" stroke-linecap="round" stroke-linejoin="round" fill="none"></rect>
    <circle cx="12" cy="12" r="4" stroke="currentColor" stroke-width="2" stroke-linecap="round" stroke-linejoin="round" fill="none"></circle>
    <circle cx="17" cy="7" r="1" fill="currentColor"></circle>
  </symbol>
  <symbol xmlns="http://www.w3.org/2000/svg" viewBox="0 0 24 24" id="ic_medal">
    <path d="M18.0469 13.2463V10.795C18.0469 9.41063 17.1634 8.22895 15.9307 7.78345L17.9241 0H6.07223L8.09531 7.77459C6.84919 8.21283 5.95312 9.40097 5.95312 10.795V13.2463C5.29908 14.3183 4.92188 15.5768 4.92188 16.9219C4.92188 20.8248 8.09709 24 12 24C15.9029 24 19.0781 20.8248 19.0781 16.9219C19.0781 15.5768 18.7009 14.3183 18.0469 13.2463V13.2463ZM16.6406 10.795V11.5817C16.2057 11.2032 15.7243 10.8769 15.2062 10.6126L15.5789 9.15727C16.204 9.43828 16.6406 10.0664 16.6406 10.795ZM16.1123 1.40625L14.6415 7.14928L13.6804 1.40625H16.1123ZM12.2546 1.40625L13.6666 9.84375H10.0868L7.89127 1.40625H12.2546ZM8.45152 9.14348L8.82923 10.595C8.29772 10.8624 7.80417 11.1947 7.35938 11.5817V10.795C7.35938 10.0546 7.81008 9.41752 8.45152 9.14348ZM12 22.5938C8.8725 22.5938 6.32812 20.0494 6.32812 16.9219C6.32812 13.7944 8.8725 11.25 12 11.25C15.1275 11.25 17.6719 13.7944 17.6719 16.9219C17.6719 20.0494 15.1275 22.5938 12 22.5938Z" fill="currentColor"></path>
    <path d="M13.2298 17.3523C13.6045 16.8025 13.9539 16.1876 13.9506 15.5043C13.9477 14.8987 13.6451 14.3047 13.1658 13.9344C11.925 12.9757 10.1666 13.6831 9.83083 15.1674L9.69531 15.8574L11.0752 16.1284L11.2107 15.4384C11.3838 14.6627 12.4895 14.7426 12.5509 15.5334L12.5359 15.6509C12.4711 15.9026 12.3136 16.2114 12.079 16.5467C10.7864 18.3936 10.2204 19.0003 10.2164 19.0046L10.0233 19.2072L10.019 20.3694L14.1847 20.3821L14.189 18.9759C14.189 18.9759 12.0552 18.9693 12.055 18.9693C12.1531 18.9696 12.5065 18.3658 12.5709 18.2777C12.7783 17.9937 12.9843 17.7082 13.1842 17.4188C13.1994 17.3968 13.2146 17.3746 13.2298 17.3523V17.3523Z" fill="currentColor"></path>
  </symbol>
  <symbol xmlns="http://www.w3.org/2000/svg" viewBox="0 0 24 24" id="ic_notice">
    <path d="M5.82474 13.934L5.09976 13.2452L5.82474 13.934ZM8 9C8 6.79086 9.79086 5 12 5V3C8.68629 3 6 5.68629 6 9H8ZM8 11.7564V9H6V11.7564H8ZM6 16C6 15.4658 6.20812 14.9823 6.54971 14.6228L5.09976 13.2452C4.41915 13.9616 4 14.9329 4 16H6ZM7 16H6V18H7V16ZM17 16H7V18H17V16ZM18 16H17V18H18V16ZM17.4503 14.6228C17.7919 14.9823 18 15.4658 18 16H20C20 14.9329 19.5809 13.9616 18.9002 13.2452L17.4503 14.6228ZM16 9V11.7564H18V9H16ZM12 5C14.2091 5 16 6.79086 16 9H18C18 5.68629 15.3137 3 12 3V5ZM18.9002 13.2452C18.2923 12.6054 18 12.1579 18 11.7564H16C16 13.05 16.8905 14.0336 17.4503 14.6228L18.9002 13.2452ZM4 16C4 17.1046 4.89543 18 6 18V16H4ZM18 18C19.1046 18 20 17.1046 20 16H18V18ZM6 11.7564C6 12.1579 5.70766 12.6054 5.09976 13.2452L6.54971 14.6228C7.10947 14.0336 8 13.05 8 11.7564H6Z" fill="currentColor"></path>
    <path d="M13.7976 19.8767C13.6312 20.2179 13.3712 20.5046 13.048 20.7035C12.7247 20.9023 12.3516 21.0051 11.9721 20.9998C11.5926 20.9945 11.2224 20.8813 10.9049 20.6735C10.5873 20.4657 10.3354 20.1718 10.1786 19.8262" stroke="currentColor" stroke-width="2" stroke-linecap="round" stroke-linejoin="round" fill="none"></path>
    <path d="M12 3V4" stroke="currentColor" stroke-width="2" stroke-linecap="round" stroke-linejoin="round" fill="none"></path>
  </symbol>
  <symbol xmlns="http://www.w3.org/2000/svg" viewBox="0 0 112 112" id="ic_play_btn">
    <path d="M92 49.0718C97.3333 52.151 97.3333 59.849 92 62.9282L38 94.1051C32.6667 97.1843 26 93.3353 26 87.1769L26 24.8231C26 18.6647 32.6667 14.8157 38 17.8949L92 49.0718Z" fill="currentColor"></path>
  </symbol>
  <symbol xmlns="http://www.w3.org/2000/svg" viewBox="0 0 16 16" id="ic_select_arrow">
    <path d="M8.0026 9.33317L7.47227 9.8635C7.61293 10.0042 7.80369 10.0832 8.0026 10.0832C8.20152 10.0832 8.39228 10.0042 8.53293 9.8635L8.0026 9.33317ZM5.86627 6.13617L5.33594 5.60584L4.27528 6.6665L4.80561 7.19683L5.86627 6.13617ZM11.1996 7.19683L11.7299 6.6665L10.6693 5.60584L10.1389 6.13617L11.1996 7.19683ZM8.53293 8.80284L5.86627 6.13617L4.80561 7.19683L7.47227 9.8635L8.53293 8.80284ZM8.53293 9.8635L11.1996 7.19683L10.1389 6.13617L7.47227 8.80284L8.53293 9.8635Z" fill="currentColor"></path>
  </symbol>
  <symbol xmlns="http://www.w3.org/2000/svg" viewBox="0 0 24 24" id="ic_search">
    <circle cx="10" cy="10" r="6" stroke="#2E363D" stroke-width="2" stroke-linecap="round" stroke-linejoin="round" fill="none"></circle>
    <path d="M14.5 14.5L19 19" stroke="#2E363D" stroke-width="2" stroke-linecap="round" stroke-linejoin="round" fill="none"></path>
  </symbol>
  <symbol xmlns="http://www.w3.org/2000/svg" viewBox="0 0 24 24" id="ic_send">
    <path d="M4 12L20 12M20 12L14 18M20 12L14 6" stroke="currentColor" stroke-width="2" stroke-linecap="square" stroke-linejoin="round" fill="none"></path>
  </symbol>
  <symbol xmlns="http://www.w3.org/2000/svg" viewBox="0 0 32 32" id="ic_slider_arrow">
    <path d="M12.75 7.33301L19.25 15.9997L12.75 24.6663" stroke="currentColor" stroke-width="4" stroke-linecap="square" stroke-linejoin="round" fill="none"></path>
  </symbol>
  <symbol xmlns="http://www.w3.org/2000/svg" viewBox="0 0 16 16" id="ic_sort">
    <path d="M4.5 12H4V11H4.5V12ZM12.5 11H13V12H12.5V11ZM4.5 11H12.5V12H4.5V11Z" fill="currentColor"></path>
    <path d="M4.5 9H4V8H4.5V9ZM9.5 8L10 8V9L9.5 9V8ZM4.5 8L9.5 8V9L4.5 9V8Z" fill="currentColor"></path>
    <path d="M4.5 6H4V5H4.5V6ZM6.5 5H7V6H6.5V5ZM4.5 5L6.5 5V6L4.5 6V5Z" fill="currentColor"></path>
  </symbol>
</svg>